<?xml version="1.0" encoding="utf-8"?>
<!-- Generator: Adobe Illustrator 19.1.0, SVG Export Plug-In . SVG Version: 6.00 Build 0)  -->
<svg version="1.1" id="Layer_2" xmlns="http://www.w3.org/2000/svg" xmlns:xlink="http://www.w3.org/1999/xlink" x="0px" y="0px"
	 viewBox="0 0 1300 850" style="enable-background:new 0 0 1300 850;" xml:space="preserve">
<style type="text/css">
	.st0{fill:#00A6CA;}
	.st1{fill:none;stroke:#00A6CA;stroke-width:1.2222;stroke-miterlimit:10;}
	.st2{fill:#939393;}
</style>
<g>
	<path class="st0" d="M192,395.1c-1.4-1-2.9-1.8-4.7-2.3c-1.7-0.5-3.5-0.8-5.3-0.7c-1.3,0-2.6,0.1-4,0.4c-1.3,0.3-2.6,0.7-3.7,1.3
		c-1.1,0.6-2.2,1.3-3.1,2.2c-0.9,0.9-1.6,1.9-2,3.1c-0.1-1.7-0.6-3.1-1.5-4.2c-0.9-1.1-1.9-1.8-3.2-2.3c-1.3-0.5-2.7-0.7-4.3-0.7
		c-1.6,0-3.2,0.2-4.8,0.5l0.1,6.6c1.1-0.1,2,0,2.7,0.2c0.7,0.2,1.1,0.6,1.4,1c0.3,0.5,0.4,1.1,0.5,1.8c0.1,0.7,0.1,1.6,0.1,2.5v31.3
		h9.7v-24.9c0-1.7,0.3-3.2,0.9-4.5c0.6-1.3,1.4-2.3,2.4-3.2c1-0.8,2.2-1.5,3.5-1.9c1.3-0.4,2.7-0.6,4.2-0.6c2.5,0,4.8,0.6,7,1.7l0,0
		L192,395.1z"/>
	<path class="st0" d="M234.9,429.2c-0.6-0.2-1.1-0.6-1.4-1.2c-0.3-0.5-0.5-1.2-0.5-2c0-0.8,0-1.7,0-2.7V396
		c-2.9-1.3-5.8-2.2-8.7-2.9c-2.9-0.7-5.9-1-9.1-1c-3.5-0.1-6.8,0.4-9.7,1.5c-3,1-5.5,2.6-7.7,4.6c-2.2,2-3.9,4.5-5.2,7.4
		c-1.3,2.9-1.9,6.1-2,9.7c0,3,0.4,5.9,1.2,8.5c0.8,2.6,2,4.9,3.6,6.9c1.6,2,3.6,3.5,6.1,4.6c2.4,1.1,5.3,1.7,8.6,1.7
		c3.2,0,6.1-0.8,8.9-2.5c2.8-1.6,4.8-4,6-6.9c0,2.3,0.4,4.1,1.1,5.3c0.7,1.3,1.7,2.2,2.9,2.9c1.2,0.6,2.5,0.9,4,1
		c1.5,0,3-0.1,4.6-0.4v-6.9C236.4,429.5,235.5,429.4,234.9,429.2z M223.5,414.4c-0.1,4-1.1,7.3-3,9.9c-1.9,2.6-4.6,3.9-8.3,3.9
		c-4,0-7-1.2-8.9-3.5c-1.9-2.4-2.9-5.5-2.9-9.5c0.1-2.3,0.5-4.4,1.2-6.3c0.7-1.9,1.7-3.5,2.9-4.8c1.2-1.3,2.7-2.4,4.3-3.1
		c1.7-0.7,3.6-1.1,5.6-1.1c1.4,0,2.9,0.1,4.4,0.4c1.6,0.3,3.1,0.7,4.6,1.4V414.4z"/>
	<path class="st0" d="M281.5,397.4c-1.4-1.6-3.2-2.9-5.3-3.9c-2.2-1-4.7-1.4-7.6-1.4c-1.4,0-2.9,0.1-4.3,0.4
		c-1.5,0.3-2.9,0.7-4.2,1.3c-1.3,0.6-2.6,1.3-3.6,2.3c-1.1,1-1.9,2.1-2.5,3.5c0-2-0.4-3.6-1.3-4.7c-0.8-1.1-1.9-1.9-3.2-2.2
		c-1.3-0.4-2.7-0.5-4.3-0.4c-1.6,0.1-3.2,0.3-4.8,0.6v6.7c1.1-0.1,1.9,0,2.6,0.1c0.6,0.1,1.1,0.4,1.4,0.9c0.3,0.5,0.5,1.1,0.5,1.9
		c0.1,0.8,0.1,1.8,0.1,3.1v30.7h9.9v-24.6c0-1.7,0.3-3.3,0.9-4.8c0.6-1.4,1.3-2.7,2.3-3.7c1-1,2.1-1.8,3.5-2.4
		c1.3-0.6,2.7-0.8,4.3-0.8c2.9,0.1,5.4,1,7.3,2.9c1.9,1.9,2.9,4.5,2.8,7.9v25.4h9.9v-25.4c0-2.7-0.3-5.2-1-7.4
		C284,401,282.9,399.1,281.5,397.4z"/>
	<path class="st0" d="M325.2,413.6c-1.6-0.9-3.5-1.6-5.7-2c-2.1-0.4-4.4-0.8-6.6-1.1c-3.4-0.4-6-0.9-7.7-1.6
		c-1.7-0.6-2.6-1.8-2.6-3.6c-0.1-1,0.1-1.8,0.6-2.6c0.5-0.7,1.1-1.4,2-1.9c0.9-0.5,1.8-0.9,2.9-1.2c1.1-0.3,2.2-0.4,3.3-0.4
		c1.1,0,2.3,0.1,3.5,0.3c1.2,0.2,2.2,0.5,3.1,0.9c0.9,0.4,1.7,1,2.3,1.7c0.6,0.7,0.9,1.6,0.9,2.7h8.6c0.1-2.2-0.4-4-1.3-5.7
		c-1-1.6-2.3-3-4-4.1c-1.7-1.1-3.7-1.9-5.9-2.5c-2.2-0.5-4.6-0.8-7.1-0.8c-2.3,0-4.6,0.3-6.8,0.8c-2.2,0.5-4.2,1.4-5.9,2.5
		c-1.7,1.1-3.1,2.5-4.1,4.2c-1.1,1.7-1.6,3.7-1.6,6c0.1,2.5,0.7,4.4,1.8,5.8c1.2,1.4,2.7,2.6,4.5,3.4c1.8,0.8,3.9,1.4,6.1,1.7
		c2.2,0.4,4.5,0.7,6.7,1c2.9,0.4,5.2,0.9,7,1.7c1.8,0.8,2.7,2.1,2.7,4.1c-0.1,1.3-0.4,2.4-1,3.3c-0.6,0.9-1.4,1.5-2.4,2
		c-1,0.5-2.1,0.8-3.3,1c-1.2,0.2-2.4,0.3-3.6,0.3c-1.2,0-2.4-0.1-3.5-0.4c-1.1-0.3-2.2-0.7-3.1-1.2c-0.9-0.5-1.7-1.2-2.3-2
		c-0.6-0.8-0.9-1.8-1-2.9H292c0.2,2.7,0.9,4.9,2.1,6.7c1.2,1.8,2.7,3.2,4.5,4.3c1.8,1.1,3.9,1.8,6.2,2.2c2.3,0.4,4.6,0.6,7,0.6
		c2.4,0,4.7-0.3,7-0.8c2.3-0.5,4.3-1.4,6-2.5c1.7-1.1,3.1-2.5,4.2-4.3c1.1-1.7,1.6-3.8,1.6-6.2c0-2.6-0.5-4.6-1.5-6.2
		C328.1,415.7,326.8,414.5,325.2,413.6z"/>
	<path class="st0" d="M434.5,397.4c-1.4-1.6-3.2-2.9-5.3-3.9c-2.2-1-4.7-1.4-7.6-1.4c-1.4,0-2.9,0.1-4.3,0.4
		c-1.5,0.3-2.9,0.7-4.2,1.3c-1.3,0.6-2.6,1.3-3.6,2.3c-1.1,1-1.9,2.1-2.5,3.5c0-2-0.4-3.6-1.3-4.7c-0.8-1.1-1.9-1.9-3.2-2.2
		c-1.3-0.4-2.7-0.5-4.3-0.4c-1.6,0.1-3.2,0.3-4.8,0.6v6.7c1.1-0.1,1.9,0,2.6,0.1c0.6,0.1,1.1,0.4,1.4,0.9c0.3,0.5,0.5,1.1,0.5,1.9
		c0.1,0.8,0.1,1.8,0.1,3.1v30.7h9.9v-24.6c0-1.7,0.3-3.3,0.9-4.8c0.6-1.4,1.3-2.7,2.3-3.7c1-1,2.1-1.8,3.4-2.4
		c1.3-0.6,2.8-0.8,4.3-0.8c2.9,0.1,5.4,1,7.3,2.9c1.9,1.9,2.9,4.5,2.8,7.9v25.4h9.9v-25.4c0-2.7-0.3-5.2-1-7.4
		C437,401,435.9,399.1,434.5,397.4z"/>
	<path class="st0" d="M451.8,373.8c-1.5,0-2.9,0.5-4.1,1.4c-1.2,1-1.8,2.4-1.8,4.3c0,2,0.6,3.5,1.9,4.4c1.3,1,2.6,1.5,4.1,1.4
		c1.4-0.1,2.7-0.6,3.9-1.5c1.2-1,1.8-2.4,1.8-4.3c0-1.9-0.6-3.4-1.8-4.3C454.6,374.3,453.3,373.8,451.8,373.8z"/>
	<rect x="446.9" y="392.9" class="st0" width="9.8" height="43.2"/>
	<path class="st0" d="M502.2,397.5c-2.2-1.8-4.6-3.2-7.4-4.1c-2.8-0.9-5.7-1.3-8.7-1.3c-2.8,0-5.6,0.5-8.3,1.4
		c-2.7,0.9-5.1,2.3-7.2,4.2c-2.1,1.9-3.8,4.2-5.1,6.9c-1.3,2.8-1.9,6-1.9,9.7c0,3.8,0.7,7.1,2,9.9c1.3,2.8,3,5.2,5.2,7.1
		c2.1,1.9,4.5,3.3,7.3,4.2c2.7,0.9,5.5,1.4,8.4,1.4c2.9,0,5.7-0.5,8.4-1.4c2.7-0.9,5.2-2.3,7.3-4.2c2.1-1.9,3.9-4.2,5.2-7.1
		c1.3-2.8,2-6.1,2-9.9c0-3.8-0.6-7.1-1.9-9.9C506,401.6,504.3,399.3,502.2,397.5z M498.3,420.4c-0.8,1.7-1.7,3.2-2.9,4.3
		c-1.2,1.2-2.6,2-4.1,2.6c-1.6,0.6-3.1,0.9-4.7,0.9c-1.7,0-3.3-0.3-4.9-0.9c-1.6-0.6-3-1.4-4.3-2.6c-1.3-1.2-2.3-2.6-3-4.4
		c-0.8-1.8-1.1-3.8-1.1-6.1c0-2.3,0.4-4.3,1.1-6c0.7-1.7,1.7-3.1,2.9-4.2c1.2-1.1,2.6-1.9,4.1-2.5c1.5-0.6,3.1-0.9,4.7-0.9
		c1.7-0.1,3.3,0.2,4.9,0.7c1.6,0.5,3,1.4,4.3,2.5c1.3,1.1,2.3,2.6,3,4.3c0.8,1.7,1.2,3.8,1.2,6.1
		C499.5,416.6,499.1,418.7,498.3,420.4z"/>
	<path class="st0" d="M113.6,382.6v-9.2h46.6v9.2h-18.2v53.5h-10.2v-53.5H113.6z"/>
	<path class="st0" d="M338.1,415v-41.7h10.4v41.4c0,8.2,6.2,12.8,14.2,12.8c7.9,0,14-4.6,14-12.8v-41.4h10.3V415
		c0,14-10.9,21.9-24.3,21.9C349.1,436.9,338.1,429,338.1,415z"/>
	<path class="st0" d="M557.7,426v-6.8h0v-8.4c0-2.7-0.3-5.2-1-7.4c-0.7-2.3-1.7-4.2-3.1-5.9c-1.4-1.6-3.2-2.9-5.3-3.9
		c-2.2-1-4.7-1.4-7.6-1.4c-1.4,0-2.9,0.1-4.3,0.4c-1.5,0.3-2.9,0.7-4.2,1.3c-1.3,0.6-2.6,1.3-3.6,2.3c-1.1,1-1.9,2.1-2.5,3.5
		c0-2-0.4-3.6-1.3-4.7c-0.8-1.1-1.9-1.9-3.2-2.2c-1.3-0.4-2.7-0.5-4.3-0.4c-1.6,0.1-3.2,0.3-4.7,0.6v6.7c1.1-0.1,1.9,0,2.6,0.1
		c0.6,0.1,1.1,0.4,1.4,0.9c0.3,0.5,0.5,1.1,0.5,1.9c0.1,0.8,0.1,1.8,0.1,3.1v30.7h9.9v-24.6c0-1.7,0.3-3.3,0.8-4.8
		c0.6-1.4,1.3-2.7,2.3-3.7c1-1,2.1-1.8,3.4-2.4c1.3-0.6,2.7-0.8,4.3-0.8c2.9,0.1,5.4,1,7.3,2.9c1.9,1.9,2.9,4.5,2.8,7.9v14.6l0,0
		v1.1c0,10.5,6.6,11.6,15,10V430C558.5,430.4,557.7,429.3,557.7,426z"/>
	<g>
		<g>
			<path class="st0" d="M583.2,303c-16.8,0-31.4,9.1-39.2,22.7c-3,5.4-3.2,10.1-1,14c2.6,4.5,8.4,5.2,11.7,5.2h5.8l-2.1,6.6
				c-1.3,4-0.8,8.2,1.3,11.1c2,2.8,5.3,4.3,9.1,4.3c2.7,0,5.5-0.5,8.1-1.6c-0.7-1-1.3-2.1-1.7-3.2c-0.4-1.1-0.7-2.2-0.8-3.3
				c-1.6,0.6-3.5,0.9-5.2,0.9c-1,0-2.5-0.4-3.3-1.5c-0.7-1-0.9-2.6-0.4-4.4l2.9-8.8h8.9l2.4-7.3h-8.9l3.9-12h-7.8l-3.9,12h-8.1
				c-2.6,0-4.2-0.7-5-2c-0.9-1.5-0.1-4.6,2.1-8.3l0.1-0.1c6.8-10.1,18.4-16.7,31.5-16.7c21,0,37.9,17,37.9,37.9
				c0,21-17,37.9-37.9,37.9c-18.5,0-34-13.3-37.3-30.9l-7.2,1.5c4,20.9,22.4,36.7,44.5,36.7c25,0,45.3-20.3,45.3-45.3
				C628.5,323.3,608.2,303,583.2,303z"/>
		</g>
		<g>
			<path class="st0" d="M612,360.5c-1.8,0-4.2-0.2-5.6-1.3c-0.6-0.4-1.3-1.1-1.5-2.3c0,0,0-0.1,0-0.1c-0.1-0.6-0.1-1.3,0.2-2.1
				l5.6-17.3h0h-7.7h0l-4.8,14.9c0,0,0,0,0,0c-1.3,3.9-5.4,7-9,7c-1,0-2.2-0.4-2.8-1.2c-0.5-0.7-0.9-1.8-0.4-3.5l5.6-17.2h-7.8
				l-4.8,14.9c-1.2,3.7-0.8,7.5,1.2,10.3c1.9,2.6,5,4.1,8.6,4.1c3.6,0,7.5-1.5,10.6-4.1c1.1,1.6,2.4,2.7,4.2,3.3
				c2.5,0.8,4.1,0.8,5.9,0.8c0.8,0,1.7-0.2,2.1-0.3c0.2-0.2,0.3-0.5,0.5-0.7c0.3-0.5,0.6-0.9,0.8-1.4c0.3-0.5,0.5-1,0.7-1.4
				c0.2-0.5,0.5-1,0.7-1.5c0.1-0.3,0.3-0.7,0.4-1.1C614.3,360.4,613.2,360.5,612,360.5z"/>
		</g>
	</g>
	<path class="st0" d="M567.7,431.1c0-7.8,11.6-7.8,11.6,0C579.3,438.8,567.7,438.9,567.7,431.1z M578.3,431.1c0-6.6-9.5-6.6-9.5,0
		C568.7,437.6,578.3,437.6,578.3,431.1z M576.1,433.7v0.1h-0.9l-1.5-2h-1.2v2h-0.9v-5.6h2.3c1.1,0,2,0.7,2,1.8
		c0,0.8-0.5,1.5-1.3,1.7L576.1,433.7z M572.5,431.2h1.4c0.7,0,1.2-0.4,1.2-1.1c0-0.6-0.5-1.1-1.2-1.1h-1.4V431.2z"/>
	<g>
		<path class="st0" d="M727.5,418.7c0.1,2.1,0.7,3.8,1.8,5.2c1.1,1.4,2.5,2.6,4.2,3.5c1.7,0.9,3.6,1.5,5.6,1.9c2,0.4,4,0.6,5.9,0.6
			c1.8,0,3.7-0.2,5.7-0.5c2-0.4,3.8-1,5.4-1.8c1.6-0.9,2.9-2.1,4-3.6c1.1-1.5,1.6-3.4,1.7-5.6c0-2.5-0.5-4.4-1.6-5.8
			c-1.1-1.4-2.4-2.4-4.1-3.2c-1.7-0.7-3.6-1.2-5.7-1.5c-2.1-0.3-4.2-0.5-6.3-0.8c-2.8-0.3-5.6-0.7-8.2-1.3c-2.7-0.6-5.1-1.5-7.2-2.7
			c-2.1-1.2-3.8-2.8-5.1-4.8c-1.3-2-1.9-4.5-1.9-7.6c0-3,0.7-5.7,2-7.9c1.3-2.2,3-4,5.1-5.5c2.1-1.4,4.5-2.5,7.2-3.2
			c2.7-0.7,5.4-1.1,8.1-1.1c2.6,0,5.3,0.3,8,0.9c2.7,0.6,5.1,1.6,7.3,2.9c2.2,1.3,4,3,5.4,5.1c1.4,2.1,2.2,4.7,2.3,7.7h-6.9
			c-0.2-1.9-0.8-3.5-1.8-4.8c-1-1.3-2.3-2.3-3.8-3.1c-1.5-0.8-3.2-1.3-5-1.6c-1.8-0.3-3.6-0.5-5.4-0.5c-1.7,0-3.4,0.2-5.2,0.6
			c-1.8,0.4-3.4,1-4.9,1.8c-1.5,0.9-2.7,2-3.7,3.4c-0.9,1.4-1.4,3.1-1.4,5.1c0,2.3,0.5,4.1,1.5,5.4c1,1.3,2.3,2.3,3.9,2.9
			c1.6,0.7,3.3,1.1,5.3,1.4c1.9,0.3,3.8,0.5,5.7,0.7c3,0.4,6,0.8,8.8,1.4c2.8,0.6,5.4,1.5,7.6,2.7c2.2,1.2,4,2.9,5.3,5
			c1.3,2.1,2,4.8,2,8.2c0,3.3-0.7,6.1-2.2,8.3c-1.4,2.3-3.3,4.1-5.6,5.5c-2.3,1.4-4.8,2.4-7.7,3.1c-2.8,0.6-5.6,1-8.4,1.1
			c-2.9,0.1-5.7-0.2-8.6-0.9c-2.9-0.6-5.5-1.7-7.8-3.1c-2.3-1.4-4.3-3.2-5.8-5.5c-1.5-2.3-2.3-5-2.5-8.1H727.5z"/>
		<path class="st0" d="M835.1,435.5v-25.3c0-1.7-0.2-3.3-0.5-4.8c-0.3-1.5-0.9-2.8-1.6-3.9c-0.8-1.1-1.8-1.9-3-2.6
			c-1.2-0.6-2.7-1-4.5-1s-3.4,0.3-4.9,0.9c-1.5,0.6-2.8,1.5-4,2.6c-1.1,1.1-2,2.5-2.6,4c-0.6,1.6-1,3.3-1,5.2v24.7h-6.9v-24.9
			c0-1.8-0.2-3.4-0.5-5c-0.3-1.6-0.9-2.9-1.7-4c-0.8-1.1-1.8-2-3.1-2.6c-1.3-0.6-2.8-1-4.6-1c-3.7,0-6.6,1.2-8.7,3.5
			c-2.1,2.3-3.2,5.5-3.2,9.3v24.6h-6.9v-30.7c0-1.4,0-2.6-0.1-3.5c-0.1-0.9-0.3-1.7-0.7-2.2c-0.4-0.5-0.9-0.9-1.5-1.1
			c-0.6-0.2-1.5-0.2-2.6-0.1l-0.1-5c1.5-0.2,2.9-0.4,4.3-0.5c1.4-0.1,2.6,0.1,3.6,0.4c1,0.4,1.8,1.1,2.5,2.2
			c0.6,1.1,0.9,2.6,0.9,4.8c1.5-2.8,3.5-4.8,6-5.9c2.5-1.1,5.3-1.6,8.3-1.6c7,0,11.4,3,13.1,9.1c1.7-3.3,3.9-5.7,6.7-7
			c2.8-1.3,5.9-2,9.5-2c2.8,0,5.2,0.5,7.1,1.5c1.9,1,3.4,2.3,4.5,3.9c1.1,1.6,1.9,3.5,2.4,5.7c0.5,2.2,0.7,4.5,0.7,7v25.3H835.1z"/>
		<path class="st0" d="M881.8,427.8c-0.8,1.5-1.8,2.7-3,3.8c-1.2,1.1-2.6,1.9-4.1,2.6c-1.5,0.7-3.1,1.2-4.8,1.5
			c-1.7,0.3-3.3,0.5-4.9,0.5c-1.9,0-3.8-0.2-5.6-0.7c-1.8-0.5-3.4-1.2-4.8-2.2c-1.4-1-2.5-2.3-3.3-3.9c-0.8-1.6-1.2-3.4-1.2-5.6
			c0-2.3,0.4-4.4,1.3-6.2c0.8-1.8,2-3.2,3.5-4.4c1.5-1.2,3.2-2.1,5.1-2.6c1.9-0.6,4-0.9,6.2-0.9c2.5,0,5,0.2,7.6,0.7
			c2.6,0.4,4.9,1.2,7,2.4v-6.2c0-1.8-0.4-3.2-1.3-4.4c-0.9-1.2-1.9-2.1-3.3-2.7c-1.3-0.6-2.8-1.1-4.3-1.4c-1.6-0.3-3.1-0.4-4.5-0.4
			c-2.5,0-4.8,0.3-7,0.7c-2.2,0.5-4.2,1.3-6,2.3l-1.1-5.5c2.1-1.1,4.4-1.8,7-2.4c2.6-0.5,5.3-0.8,8.1-0.8c2.4,0,4.7,0.2,7,0.7
			c2.3,0.5,4.3,1.3,6,2.4c1.7,1.1,3.1,2.7,4.1,4.5c1,1.9,1.5,4.2,1.5,7v17.7c0,1.2,0,2.2,0,3.1c0,0.9,0.2,1.7,0.5,2.2
			c0.3,0.6,0.8,1,1.5,1.2c0.7,0.2,1.7,0.3,2.9,0.1l0.1,4.5c-1.8,0.3-3.3,0.4-4.6,0.4c-1.3-0.1-2.4-0.4-3.3-1
			c-0.9-0.6-1.5-1.5-1.9-2.6C882,431.3,881.8,429.8,881.8,427.8z M880.8,418.1c-1.3-0.8-3.2-1.5-5.6-2.1c-2.4-0.6-4.8-0.9-7.3-0.9
			c-1.4,0-2.7,0.1-4,0.4c-1.3,0.3-2.5,0.8-3.5,1.4c-1,0.6-1.9,1.5-2.5,2.6c-0.6,1.1-1,2.3-1,3.9c0,1.4,0.3,2.5,0.8,3.4
			c0.5,0.9,1.2,1.6,2.1,2.2c0.9,0.5,1.9,0.9,3,1.1c1.1,0.2,2.3,0.3,3.5,0.3c1.4,0,2.9-0.2,4.4-0.5c1.5-0.4,2.9-0.9,4.3-1.7
			c1.4-0.8,2.6-1.7,3.6-2.9c1-1.2,1.8-2.7,2.2-4.4V418.1z"/>
		<path class="st0" d="M907.1,399c1.3-2.5,3.1-4.2,5.4-5.2c2.3-1,4.8-1.5,7.5-1.5c3.7,0,7,1.1,9.9,3.2l-1.7,5.8
			c-1.4-0.9-2.8-1.6-4.3-2.1c-1.5-0.5-3.1-0.7-4.7-0.7c-1.5,0-3,0.3-4.4,0.8c-1.4,0.5-2.7,1.3-3.7,2.2c-1.1,0.9-2,2.1-2.6,3.5
			c-0.6,1.4-1,2.9-1,4.5v26h-6.8v-32.1c0-0.9,0-1.8-0.1-2.6c-0.1-0.8-0.3-1.4-0.6-1.9c-0.3-0.5-0.8-0.9-1.5-1.1
			c-0.7-0.2-1.7-0.3-2.9-0.2l-0.1-4.6c1.6-0.3,3.2-0.4,4.5-0.4c1.4,0,2.6,0.2,3.6,0.6c1,0.4,1.8,1.1,2.4,2
			C906.7,396.1,907,397.4,907.1,399z"/>
		<path class="st0" d="M947,393.2h15.6v5H947v21.5c0,3.8,0.8,6.6,2.3,8.4c1.5,1.8,3.7,2.6,6.4,2.6c2.3,0,5-0.6,8.2-1.8l0.8,5.4
			c-3.9,1.3-7.6,1.9-11,1.9c-4.2,0-7.5-1.3-9.9-3.9c-2.4-2.6-3.7-6.7-3.7-12.5v-21.6l-9.1-0.4v-4.6h9.5l0.7-13.2h5.7V393.2z"/>
		<path class="st0" d="M1026.1,373.8h2.8v61.7h-7.4V391l-20.2,27.8h-1.1L979.9,391v44.4h-7.4v-61.7h2.9l25.3,34.4L1026.1,373.8z"/>
		<path class="st0" d="M1080.5,414.2c0,3.7-0.6,6.9-1.9,9.7c-1.3,2.8-3,5.1-5.1,6.9c-2.1,1.8-4.5,3.2-7.2,4.1
			c-2.7,0.9-5.5,1.4-8.3,1.4c-2.8,0-5.5-0.5-8.1-1.4c-2.7-0.9-5-2.3-7.1-4.2c-2.1-1.8-3.8-4.1-5-6.9c-1.3-2.7-1.9-5.9-1.9-9.6
			c0-3.7,0.6-6.9,1.9-9.7c1.3-2.8,3-5,5.1-6.8c2.1-1.8,4.5-3.1,7.2-4c2.7-0.9,5.4-1.4,8.2-1.4c2.8,0,5.6,0.5,8.2,1.4
			c2.7,0.9,5,2.3,7.1,4.1c2.1,1.8,3.8,4.1,5,6.8C1079.9,407.3,1080.5,410.5,1080.5,414.2z M1042.8,414.2c0,2.7,0.4,5.1,1.3,7.1
			c0.9,2.1,2.1,3.8,3.5,5.1c1.5,1.4,3.1,2.4,5,3.1s3.7,1.1,5.7,1.1c1.9,0,3.8-0.4,5.7-1.1s3.5-1.7,4.9-3.1c1.4-1.3,2.6-3,3.5-5.1
			c0.9-2.1,1.3-4.4,1.3-7.1c0-2.7-0.4-5-1.3-7c-0.9-2-2.1-3.7-3.5-5c-1.5-1.3-3.1-2.3-5-3c-1.8-0.7-3.7-1-5.7-1
			c-1.9,0-3.8,0.3-5.7,1c-1.8,0.7-3.5,1.7-4.9,3c-1.4,1.3-2.6,3-3.5,5C1043.2,409.1,1042.8,411.5,1042.8,414.2z"/>
		<path class="st0" d="M1101.2,435.8l-20.2-42v-0.8h7.5l7.2,15.9l7,16.5l7-16.7l7-15.7h7.4v0.8l-20.1,42H1101.2z"/>
		<path class="st0" d="M1146.4,392.3c7.3,0.1,12.5,2.1,15.7,6.1c3.2,4,4.2,9.5,3,16.6h-33.5c-0.1,2.5,0.2,4.7,1.1,6.6
			c0.8,1.9,2,3.5,3.6,4.9c1.5,1.4,3.3,2.4,5.5,3.1c2.1,0.7,4.4,1.1,6.8,1.1c2.5,0,4.9-0.3,7.2-0.8c2.3-0.5,4.7-1.3,7.2-2.3l1.1,5.2
			c-5.1,2.4-10.3,3.6-15.6,3.6c-3.5,0-6.7-0.5-9.7-1.6c-2.9-1.1-5.5-2.6-7.6-4.6c-2.1-2-3.7-4.4-4.8-7.3c-1.1-2.8-1.6-6.1-1.5-9.7
			c0.1-3.3,0.8-6.3,1.9-8.9c1.2-2.6,2.7-4.8,4.7-6.6c2-1.8,4.2-3.1,6.8-4C1140.7,392.7,1143.5,392.3,1146.4,392.3z M1146.4,397.7
			c-3.9,0-7.1,1-9.8,3.1c-2.6,2.1-4.3,5-4.8,8.9h27.6c0.1-2-0.1-3.7-0.8-5.2c-0.6-1.5-1.6-2.7-2.7-3.7c-1.2-1-2.6-1.7-4.2-2.2
			C1150.1,398,1148.3,397.7,1146.4,397.7z"/>
	</g>
	<path class="st0" d="M1167.8,431.1c0-7.8,11.6-7.8,11.6,0C1179.4,438.8,1167.8,438.9,1167.8,431.1z M1178.4,431.1
		c0-6.6-9.5-6.6-9.5,0C1168.9,437.6,1178.4,437.6,1178.4,431.1z M1176.2,433.7v0.1h-0.9l-1.5-2h-1.2v2h-0.9v-5.6h2.3
		c1.1,0,2,0.7,2,1.8c0,0.8-0.5,1.5-1.3,1.7L1176.2,433.7z M1172.6,431.2h1.4c0.7,0,1.2-0.4,1.2-1.1c0-0.6-0.5-1.1-1.2-1.1h-1.4
		V431.2z"/>
	<line class="st1" x1="668.5" y1="337.5" x2="668.5" y2="459.2"/>
	<g>
		<g>
			<path class="st2" d="M112.5,538.4c0-2.4,0.4-4.5,1.2-6.4c0.8-1.9,1.9-3.6,3.2-4.9c1.4-1.4,3-2.4,4.8-3.1c1.8-0.7,3.8-1.1,6-1.1
				c1.5,0,2.9,0.2,4.4,0.5c1.4,0.3,2.8,0.9,4,1.6c1.2,0.7,2.3,1.7,3.2,2.8c0.9,1.1,1.6,2.5,2,4.1h-3.6c-0.4-1.1-0.9-2-1.6-2.8
				c-0.7-0.7-1.4-1.3-2.3-1.8c-0.9-0.5-1.8-0.8-2.9-1c-1-0.2-2.1-0.3-3.2-0.3c-1.8,0-3.4,0.3-4.8,0.9c-1.4,0.6-2.6,1.5-3.6,2.6
				c-1,1.1-1.8,2.4-2.3,3.9c-0.5,1.5-0.8,3.1-0.8,4.9c0,1.8,0.3,3.4,0.8,4.9c0.5,1.5,1.3,2.8,2.3,3.9c1,1.1,2.2,1.9,3.6,2.6
				c1.4,0.6,3,0.9,4.8,0.9c1.6,0,3-0.2,4.3-0.6c1.3-0.4,2.5-1,3.5-1.9c1-0.8,1.8-1.9,2.4-3.1c0.6-1.3,1-2.7,1.1-4.4h-10.9v-3.1h14.2
				c0.1,2.2-0.2,4.3-0.7,6.3c-0.6,2-1.5,3.7-2.7,5.2c-1.2,1.5-2.8,2.7-4.7,3.6c-1.9,0.9-4.1,1.3-6.6,1.3c-2.2,0-4.2-0.4-6-1.1
				c-1.9-0.7-3.5-1.8-4.8-3.2c-1.4-1.4-2.4-3-3.2-5C112.9,542.9,112.5,540.8,112.5,538.4z"/>
			<path class="st2" d="M151.3,535.7c0.6-1.2,1.5-2.1,2.7-2.6c1.1-0.5,2.4-0.8,3.7-0.8c1.8,0,3.5,0.5,4.9,1.6l-0.8,2.9
				c-0.7-0.4-1.4-0.8-2.1-1c-0.7-0.2-1.5-0.4-2.3-0.4c-0.8,0-1.5,0.1-2.2,0.4c-0.7,0.3-1.3,0.6-1.9,1.1c-0.5,0.5-1,1-1.3,1.7
				c-0.3,0.7-0.5,1.4-0.5,2.2v12.9h-3.4v-15.9c0-0.5,0-0.9,0-1.3c0-0.4-0.1-0.7-0.3-1c-0.2-0.2-0.4-0.4-0.8-0.5
				c-0.3-0.1-0.8-0.1-1.4-0.1l0-2.3c0.8-0.1,1.6-0.2,2.2-0.2c0.7,0,1.3,0.1,1.8,0.3c0.5,0.2,0.9,0.5,1.2,1
				C151.1,534.2,151.3,534.9,151.3,535.7z"/>
			<path class="st2" d="M175.8,532.3c3.6,0,6.2,1,7.8,3c1.6,2,2.1,4.7,1.5,8.2h-16.6c-0.1,1.2,0.1,2.3,0.5,3.2
				c0.4,0.9,1,1.8,1.8,2.4c0.8,0.7,1.7,1.2,2.7,1.5c1,0.3,2.2,0.5,3.4,0.5c1.2,0,2.4-0.1,3.6-0.4c1.1-0.3,2.3-0.6,3.6-1.1l0.5,2.6
				c-2.5,1.2-5.1,1.8-7.7,1.8c-1.7,0-3.3-0.3-4.8-0.8c-1.5-0.5-2.7-1.3-3.8-2.3c-1-1-1.8-2.2-2.4-3.6c-0.6-1.4-0.8-3-0.7-4.8
				c0.1-1.7,0.4-3.1,1-4.4c0.6-1.3,1.4-2.4,2.3-3.2c1-0.9,2.1-1.6,3.4-2C173,532.6,174.4,532.3,175.8,532.3z M175.8,535
				c-1.9,0-3.5,0.5-4.8,1.5c-1.3,1-2.1,2.5-2.4,4.4h13.7c0.1-1-0.1-1.9-0.4-2.6c-0.3-0.7-0.8-1.4-1.4-1.9c-0.6-0.5-1.3-0.9-2.1-1.1
				C177.6,535.2,176.7,535,175.8,535z"/>
			<path class="st2" d="M204.7,550c-0.4,0.7-0.9,1.4-1.5,1.9c-0.6,0.5-1.3,1-2,1.3c-0.7,0.3-1.5,0.6-2.4,0.8
				c-0.8,0.2-1.6,0.2-2.4,0.2c-1,0-1.9-0.1-2.8-0.3c-0.9-0.2-1.7-0.6-2.4-1.1c-0.7-0.5-1.2-1.1-1.6-1.9c-0.4-0.8-0.6-1.7-0.6-2.8
				c0-1.2,0.2-2.2,0.6-3.1c0.4-0.9,1-1.6,1.7-2.2c0.7-0.6,1.6-1,2.6-1.3c1-0.3,2-0.4,3.1-0.4c1.2,0,2.5,0.1,3.8,0.3
				c1.3,0.2,2.4,0.6,3.5,1.2v-3.1c0-0.9-0.2-1.6-0.6-2.2c-0.4-0.6-1-1-1.6-1.4c-0.7-0.3-1.4-0.5-2.1-0.7c-0.8-0.1-1.5-0.2-2.2-0.2
				c-1.2,0-2.4,0.1-3.4,0.4c-1.1,0.2-2.1,0.6-3,1.2l-0.6-2.7c1-0.5,2.2-0.9,3.5-1.2c1.3-0.3,2.6-0.4,4-0.4c1.2,0,2.3,0.1,3.5,0.3
				c1.1,0.2,2.1,0.6,3,1.2c0.9,0.6,1.5,1.3,2,2.2c0.5,0.9,0.7,2.1,0.7,3.4v8.8c0,0.6,0,1.1,0,1.5c0,0.5,0.1,0.8,0.2,1.1
				c0.1,0.3,0.4,0.5,0.7,0.6c0.3,0.1,0.8,0.1,1.5,0l0,2.2c-0.9,0.1-1.6,0.2-2.3,0.2c-0.6,0-1.2-0.2-1.6-0.5c-0.4-0.3-0.8-0.7-1-1.3
				C204.8,551.7,204.7,550.9,204.7,550z M204.2,545.2c-0.7-0.4-1.6-0.8-2.8-1c-1.2-0.3-2.4-0.4-3.6-0.4c-0.7,0-1.3,0.1-2,0.2
				c-0.7,0.1-1.2,0.4-1.7,0.7c-0.5,0.3-0.9,0.7-1.2,1.3c-0.3,0.5-0.5,1.2-0.5,1.9c0,0.7,0.1,1.2,0.4,1.7c0.3,0.5,0.6,0.8,1,1.1
				c0.4,0.3,0.9,0.4,1.5,0.5c0.6,0.1,1.1,0.2,1.7,0.2c0.7,0,1.4-0.1,2.2-0.3c0.7-0.2,1.5-0.5,2.1-0.8c0.7-0.4,1.3-0.9,1.8-1.5
				c0.5-0.6,0.9-1.3,1.1-2.2V545.2z"/>
			<path class="st2" d="M219.9,532.8h7.7v2.5h-7.7v10.6c0,1.9,0.4,3.3,1.1,4.1c0.8,0.9,1.8,1.3,3.2,1.3c1.1,0,2.5-0.3,4.1-0.9
				l0.4,2.7c-1.9,0.6-3.8,1-5.5,1c-2.1,0-3.7-0.6-4.9-1.9c-1.2-1.3-1.8-3.3-1.8-6.2v-10.7l-4.5-0.2v-2.3h4.7l0.3-6.5h2.8V532.8z"/>
			<path class="st2" d="M268.6,553.2v0.5h-3.8l-8.5-11.2h-8v11.2h-3.7v-30.6h12.2c1.6,0,3,0.3,4.3,0.8c1.3,0.5,2.4,1.2,3.3,2.1
				c0.9,0.9,1.6,1.9,2.1,3.1c0.5,1.2,0.7,2.5,0.7,3.9c0,1.2-0.2,2.3-0.5,3.3c-0.4,1-0.9,1.9-1.5,2.6c-0.6,0.8-1.4,1.4-2.3,2
				c-0.9,0.5-1.9,0.9-2.9,1.2L268.6,553.2z M256.8,539.5c1,0,1.9-0.2,2.7-0.5c0.8-0.3,1.6-0.8,2.2-1.3c0.6-0.6,1.1-1.3,1.5-2.1
				c0.3-0.8,0.5-1.7,0.5-2.7c0-1-0.2-1.9-0.5-2.7c-0.3-0.8-0.8-1.5-1.4-2c-0.6-0.6-1.3-1-2.2-1.3c-0.8-0.3-1.8-0.5-2.7-0.5h-8.5
				v13.1H256.8z"/>
			<path class="st2" d="M282.7,532.3c3.6,0,6.2,1,7.8,3c1.6,2,2.1,4.7,1.5,8.2h-16.6c-0.1,1.2,0.1,2.3,0.5,3.2
				c0.4,0.9,1,1.8,1.8,2.4c0.8,0.7,1.7,1.2,2.7,1.5c1,0.3,2.2,0.5,3.4,0.5c1.2,0,2.4-0.1,3.6-0.4c1.1-0.3,2.3-0.6,3.6-1.1l0.5,2.6
				c-2.5,1.2-5.1,1.8-7.7,1.8c-1.7,0-3.3-0.3-4.8-0.8c-1.5-0.5-2.7-1.3-3.8-2.3c-1-1-1.8-2.2-2.4-3.6c-0.6-1.4-0.8-3-0.7-4.8
				c0.1-1.7,0.4-3.1,1-4.4c0.6-1.3,1.4-2.4,2.3-3.2c1-0.9,2.1-1.6,3.4-2C279.8,532.6,281.2,532.3,282.7,532.3z M282.7,535
				c-1.9,0-3.5,0.5-4.8,1.5c-1.3,1-2.1,2.5-2.4,4.4h13.7c0.1-1-0.1-1.9-0.4-2.6c-0.3-0.7-0.8-1.4-1.4-1.9c-0.6-0.5-1.3-0.9-2.1-1.1
				C284.5,535.2,283.6,535,282.7,535z"/>
			<path class="st2" d="M300.9,536.2c0.9-1.5,2-2.5,3.4-3c1.4-0.6,2.8-0.9,4.2-0.9c1.5,0,2.9,0.3,4.1,0.8s2.2,1.3,3,2.3
				c0.8,1,1.4,2.1,1.8,3.4c0.4,1.3,0.6,2.7,0.6,4.2c0,1.7-0.3,3.2-0.8,4.6c-0.6,1.4-1.3,2.5-2.2,3.5c-0.9,1-2,1.7-3.2,2.2
				c-1.2,0.5-2.5,0.8-3.9,0.8c-1.1,0-2.2-0.1-3.3-0.4c-1.1-0.2-2.2-0.7-3.3-1.5v12.3H298v-24.8c0-0.7,0-1.3,0-1.9
				c0-0.6-0.1-1.1-0.2-1.5c-0.1-0.4-0.4-0.7-0.7-0.9c-0.3-0.2-0.9-0.3-1.6-0.2l0-2.5c1.7-0.3,3-0.2,4,0.3
				C300.5,533.5,301,534.6,300.9,536.2z M301.3,549.1c1,0.8,2,1.3,3,1.6c1,0.3,2.1,0.4,3.1,0.4c1,0,1.9-0.2,2.8-0.5
				c0.9-0.4,1.7-0.9,2.3-1.6c0.7-0.7,1.2-1.5,1.6-2.5c0.4-1,0.6-2.1,0.6-3.4c0-1-0.1-2-0.4-3c-0.2-0.9-0.6-1.7-1.2-2.4
				c-0.6-0.7-1.3-1.2-2.1-1.7c-0.8-0.4-1.8-0.6-3-0.6c-1,0-1.9,0.2-2.7,0.5c-0.8,0.4-1.5,0.9-2,1.5c-0.6,0.6-1,1.4-1.3,2.2
				c-0.3,0.8-0.5,1.7-0.5,2.6V549.1z"/>
			<path class="st2" d="M344.2,543.2c0,1.8-0.3,3.4-1,4.8c-0.6,1.4-1.5,2.5-2.5,3.4c-1,0.9-2.2,1.6-3.6,2c-1.3,0.5-2.7,0.7-4.1,0.7
				c-1.4,0-2.7-0.2-4-0.7c-1.3-0.5-2.5-1.2-3.5-2.1c-1-0.9-1.9-2-2.5-3.4c-0.6-1.4-0.9-2.9-0.9-4.8c0-1.8,0.3-3.4,1-4.8
				c0.6-1.4,1.5-2.5,2.5-3.4c1-0.9,2.2-1.6,3.6-2c1.3-0.5,2.7-0.7,4.1-0.7c1.4,0,2.8,0.2,4.1,0.7c1.3,0.5,2.5,1.1,3.5,2
				c1,0.9,1.9,2,2.5,3.4C343.9,539.8,344.2,541.4,344.2,543.2z M325.5,543.2c0,1.3,0.2,2.5,0.7,3.5c0.4,1,1,1.9,1.7,2.5
				c0.7,0.7,1.5,1.2,2.5,1.5c0.9,0.3,1.9,0.5,2.8,0.5c1,0,1.9-0.2,2.8-0.5c0.9-0.3,1.7-0.9,2.4-1.5c0.7-0.7,1.3-1.5,1.7-2.5
				c0.4-1,0.7-2.2,0.7-3.5c0-1.3-0.2-2.5-0.7-3.5c-0.4-1-1-1.8-1.7-2.5c-0.7-0.7-1.5-1.1-2.5-1.5c-0.9-0.3-1.9-0.5-2.8-0.5
				c-1,0-1.9,0.2-2.8,0.5c-0.9,0.3-1.7,0.8-2.4,1.5c-0.7,0.7-1.3,1.5-1.7,2.5C325.7,540.7,325.5,541.9,325.5,543.2z"/>
			<path class="st2" d="M353.3,535.7c0.6-1.2,1.5-2.1,2.7-2.6c1.1-0.5,2.4-0.8,3.7-0.8c1.8,0,3.5,0.5,4.9,1.6l-0.8,2.9
				c-0.7-0.4-1.4-0.8-2.1-1c-0.7-0.2-1.5-0.4-2.3-0.4c-0.8,0-1.5,0.1-2.2,0.4c-0.7,0.3-1.3,0.6-1.9,1.1c-0.5,0.5-1,1-1.3,1.7
				c-0.3,0.7-0.5,1.4-0.5,2.2v12.9h-3.4v-15.9c0-0.5,0-0.9,0-1.3c0-0.4-0.1-0.7-0.3-1c-0.2-0.2-0.4-0.4-0.8-0.5
				c-0.3-0.1-0.8-0.1-1.4-0.1l0-2.3c0.8-0.1,1.6-0.2,2.2-0.2c0.7,0,1.3,0.1,1.8,0.3c0.5,0.2,0.9,0.5,1.2,1
				C353.1,534.2,353.3,534.9,353.3,535.7z"/>
			<path class="st2" d="M374,532.8h7.7v2.5H374v10.6c0,1.9,0.4,3.3,1.1,4.1c0.8,0.9,1.8,1.3,3.2,1.3c1.1,0,2.5-0.3,4.1-0.9l0.4,2.7
				c-1.9,0.6-3.8,1-5.5,1c-2.1,0-3.7-0.6-4.9-1.9c-1.2-1.3-1.8-3.3-1.8-6.2v-10.7l-4.5-0.2v-2.3h4.7l0.3-6.5h2.8V532.8z"/>
			<path class="st2" d="M388.5,547.8c0.1,0.7,0.3,1.2,0.6,1.7c0.4,0.5,0.8,0.8,1.4,1.1c0.6,0.3,1.2,0.5,1.9,0.6
				c0.7,0.1,1.4,0.2,2.1,0.2c0.7,0,1.4-0.1,2.1-0.2c0.7-0.1,1.3-0.4,1.9-0.7c0.6-0.3,1-0.7,1.4-1.1c0.3-0.5,0.5-1,0.6-1.7
				c0-0.6-0.1-1.1-0.4-1.5c-0.2-0.4-0.6-0.7-1.1-0.9c-0.5-0.2-1.1-0.5-1.9-0.6c-0.7-0.2-1.6-0.3-2.6-0.5c-1-0.1-2.1-0.3-3.1-0.5
				c-1-0.2-2-0.5-2.8-0.9c-0.8-0.4-1.5-1-2-1.6c-0.5-0.7-0.8-1.6-0.9-2.7c0-1.1,0.2-2,0.7-2.8c0.5-0.8,1.2-1.4,2-1.9
				c0.8-0.5,1.8-0.9,2.8-1.1c1-0.2,2.1-0.3,3.2-0.3c1.1,0,2.1,0.1,3.2,0.4c1.1,0.2,2,0.6,2.8,1.1c0.8,0.5,1.5,1.1,2,1.9
				c0.5,0.8,0.7,1.6,0.7,2.7h-3.3c0-0.6-0.2-1-0.5-1.5c-0.3-0.4-0.7-0.8-1.2-1c-0.5-0.3-1.1-0.5-1.7-0.6c-0.7-0.1-1.3-0.2-2-0.2
				c-0.7,0-1.3,0.1-2,0.2c-0.7,0.1-1.3,0.3-1.8,0.6c-0.5,0.3-0.9,0.6-1.3,1c-0.3,0.4-0.5,1-0.4,1.6c0,1,0.5,1.7,1.5,2.1
				c1,0.4,2.4,0.7,4.4,1c1.1,0.1,2.2,0.3,3.3,0.5c1.1,0.2,2,0.5,2.9,0.9c0.8,0.4,1.5,1,2,1.7c0.5,0.7,0.7,1.7,0.7,3
				c0,1.1-0.3,2-0.8,2.8c-0.5,0.8-1.2,1.5-2,2c-0.8,0.5-1.8,0.9-2.9,1.2c-1.1,0.3-2.3,0.4-3.5,0.4c-1.1,0-2.2-0.1-3.3-0.3
				c-1.1-0.2-2.1-0.6-2.9-1c-0.9-0.5-1.6-1.1-2.1-2c-0.6-0.8-0.9-1.8-1-3H388.5z"/>
			<path class="st2" d="M410.8,554.1c-0.6,0-1.1-0.2-1.6-0.6c-0.4-0.4-0.7-0.9-0.7-1.5c0-0.7,0.2-1.2,0.7-1.5c0.4-0.4,1-0.5,1.6-0.5
				c0.6,0,1.2,0.2,1.6,0.5c0.4,0.4,0.7,0.9,0.7,1.5c0,0.6-0.2,1.1-0.7,1.5C412,553.9,411.5,554.1,410.8,554.1z"/>
			<path class="st2" d="M429.5,538.4c0-2.4,0.4-4.5,1.2-6.4c0.8-1.9,1.9-3.6,3.2-4.9c1.4-1.4,3-2.4,4.8-3.1c1.8-0.7,3.8-1.1,6-1.1
				c1.5,0,2.9,0.2,4.4,0.5c1.4,0.3,2.8,0.9,4,1.6c1.2,0.7,2.3,1.7,3.2,2.8c0.9,1.1,1.6,2.5,2,4.1h-3.6c-0.4-1.1-0.9-2-1.6-2.8
				c-0.7-0.7-1.4-1.3-2.3-1.8c-0.9-0.5-1.8-0.8-2.9-1c-1-0.2-2.1-0.3-3.2-0.3c-1.8,0-3.4,0.3-4.8,0.9c-1.4,0.6-2.6,1.5-3.6,2.6
				c-1,1.1-1.8,2.4-2.3,3.9c-0.5,1.5-0.8,3.1-0.8,4.9c0,1.8,0.3,3.4,0.8,4.9c0.5,1.5,1.3,2.8,2.3,3.9c1,1.1,2.2,1.9,3.6,2.6
				c1.4,0.6,3,0.9,4.8,0.9c1.6,0,3-0.2,4.3-0.6c1.3-0.4,2.5-1,3.5-1.9c1-0.8,1.8-1.9,2.4-3.1c0.6-1.3,1-2.7,1.1-4.4h-10.9v-3.1h14.2
				c0.1,2.2-0.2,4.3-0.7,6.3c-0.6,2-1.5,3.7-2.7,5.2c-1.2,1.5-2.8,2.7-4.7,3.6c-1.9,0.9-4.1,1.3-6.6,1.3c-2.2,0-4.2-0.4-6-1.1
				c-1.9-0.7-3.5-1.8-4.8-3.2c-1.4-1.4-2.4-3-3.2-5C429.9,542.9,429.5,540.8,429.5,538.4z"/>
			<path class="st2" d="M468.3,535.7c0.6-1.2,1.5-2.1,2.7-2.6c1.1-0.5,2.4-0.8,3.7-0.8c1.8,0,3.5,0.5,4.9,1.6l-0.8,2.9
				c-0.7-0.4-1.4-0.8-2.1-1s-1.5-0.4-2.3-0.4c-0.8,0-1.5,0.1-2.2,0.4c-0.7,0.3-1.3,0.6-1.9,1.1c-0.5,0.5-1,1-1.3,1.7
				c-0.3,0.7-0.5,1.4-0.5,2.2v12.9h-3.4v-15.9c0-0.5,0-0.9,0-1.3c0-0.4-0.1-0.7-0.3-1c-0.2-0.2-0.4-0.4-0.8-0.5
				c-0.3-0.1-0.8-0.1-1.4-0.1l0-2.3c0.8-0.1,1.6-0.2,2.2-0.2c0.7,0,1.3,0.1,1.8,0.3c0.5,0.2,0.9,0.5,1.2,1
				C468.2,534.2,468.3,534.9,468.3,535.7z"/>
			<path class="st2" d="M492.9,532.3c3.6,0,6.2,1,7.8,3c1.6,2,2.1,4.7,1.5,8.2h-16.6c-0.1,1.2,0.1,2.3,0.5,3.2
				c0.4,0.9,1,1.8,1.8,2.4c0.8,0.7,1.7,1.2,2.7,1.5c1,0.3,2.2,0.5,3.4,0.5c1.2,0,2.4-0.1,3.6-0.4c1.1-0.3,2.3-0.6,3.6-1.1l0.5,2.6
				c-2.5,1.2-5.1,1.8-7.7,1.8c-1.7,0-3.3-0.3-4.8-0.8c-1.5-0.5-2.7-1.3-3.8-2.3c-1-1-1.8-2.2-2.4-3.6c-0.6-1.4-0.8-3-0.7-4.8
				c0.1-1.7,0.4-3.1,1-4.4c0.6-1.3,1.4-2.4,2.3-3.2c1-0.9,2.1-1.6,3.4-2C490,532.6,491.4,532.3,492.9,532.3z M492.9,535
				c-1.9,0-3.5,0.5-4.8,1.5c-1.3,1-2.1,2.5-2.4,4.4h13.7c0.1-1-0.1-1.9-0.4-2.6c-0.3-0.7-0.8-1.4-1.4-1.9c-0.6-0.5-1.3-0.9-2.1-1.1
				C494.7,535.2,493.8,535,492.9,535z"/>
			<path class="st2" d="M521.7,550c-0.4,0.7-0.9,1.4-1.5,1.9c-0.6,0.5-1.3,1-2,1.3c-0.7,0.3-1.5,0.6-2.4,0.8
				c-0.8,0.2-1.6,0.2-2.4,0.2c-1,0-1.9-0.1-2.8-0.3c-0.9-0.2-1.7-0.6-2.4-1.1c-0.7-0.5-1.2-1.1-1.6-1.9c-0.4-0.8-0.6-1.7-0.6-2.8
				c0-1.2,0.2-2.2,0.6-3.1c0.4-0.9,1-1.6,1.7-2.2s1.6-1,2.6-1.3c1-0.3,2-0.4,3.1-0.4c1.2,0,2.5,0.1,3.8,0.3c1.3,0.2,2.4,0.6,3.5,1.2
				v-3.1c0-0.9-0.2-1.6-0.6-2.2c-0.4-0.6-1-1-1.6-1.4c-0.7-0.3-1.4-0.5-2.1-0.7c-0.8-0.1-1.5-0.2-2.2-0.2c-1.2,0-2.4,0.1-3.4,0.4
				c-1.1,0.2-2.1,0.6-3,1.2l-0.6-2.7c1-0.5,2.2-0.9,3.5-1.2c1.3-0.3,2.6-0.4,4-0.4c1.2,0,2.3,0.1,3.5,0.3c1.1,0.2,2.1,0.6,3,1.2
				c0.9,0.6,1.5,1.3,2,2.2c0.5,0.9,0.7,2.1,0.7,3.4v8.8c0,0.6,0,1.1,0,1.5c0,0.5,0.1,0.8,0.2,1.1c0.1,0.3,0.4,0.5,0.7,0.6
				c0.3,0.1,0.8,0.1,1.5,0l0,2.2c-0.9,0.1-1.6,0.2-2.3,0.2c-0.6,0-1.2-0.2-1.6-0.5c-0.4-0.3-0.8-0.7-1-1.3
				C521.8,551.7,521.7,550.9,521.7,550z M521.2,545.2c-0.7-0.4-1.6-0.8-2.8-1c-1.2-0.3-2.4-0.4-3.6-0.4c-0.7,0-1.3,0.1-2,0.2
				c-0.7,0.1-1.2,0.4-1.7,0.7c-0.5,0.3-0.9,0.7-1.2,1.3c-0.3,0.5-0.5,1.2-0.5,1.9c0,0.7,0.1,1.2,0.4,1.7c0.3,0.5,0.6,0.8,1,1.1
				c0.4,0.3,0.9,0.4,1.5,0.5c0.6,0.1,1.1,0.2,1.7,0.2c0.7,0,1.4-0.1,2.2-0.3c0.7-0.2,1.5-0.5,2.1-0.8c0.7-0.4,1.3-0.9,1.8-1.5
				c0.5-0.6,0.9-1.3,1.1-2.2V545.2z"/>
			<path class="st2" d="M536.9,532.8h7.7v2.5h-7.7v10.6c0,1.9,0.4,3.3,1.1,4.1c0.8,0.9,1.8,1.3,3.2,1.3c1.1,0,2.5-0.3,4.1-0.9
				l0.4,2.7c-1.9,0.6-3.8,1-5.5,1c-2.1,0-3.7-0.6-4.9-1.9c-1.2-1.3-1.8-3.3-1.8-6.2v-10.7l-4.5-0.2v-2.3h4.7l0.3-6.5h2.8V532.8z"/>
			<path class="st2" d="M559.8,538.5c0-2.4,0.4-4.5,1.2-6.5c0.8-1.9,1.9-3.6,3.3-5c1.4-1.4,3-2.4,4.9-3.1c1.9-0.7,3.9-1.1,6-1
				c1.5,0,2.9,0.2,4.4,0.6c1.4,0.4,2.7,1,3.9,1.8c1.2,0.8,2.3,1.8,3.2,3c0.9,1.2,1.6,2.6,2.1,4.2h-3.5c-0.9-2.1-2.3-3.6-4.1-4.7
				c-1.8-1-3.8-1.5-6-1.5c-1.7,0-3.3,0.3-4.8,0.9c-1.5,0.6-2.7,1.5-3.7,2.6c-1,1.1-1.8,2.4-2.4,3.9c-0.6,1.5-0.9,3.2-0.9,4.9
				c0,1.7,0.3,3.3,0.8,4.8c0.6,1.5,1.3,2.8,2.4,3.9c1,1.1,2.3,2,3.7,2.6c1.4,0.6,3,0.9,4.8,0.9c2.4,0,4.4-0.6,6.3-1.7
				c1.8-1.1,3.2-2.8,4-5h3.5c-0.4,1.7-1.1,3.2-2,4.5c-0.9,1.3-2,2.3-3.2,3.2c-1.2,0.8-2.6,1.5-4,1.9c-1.5,0.4-3,0.6-4.5,0.6
				c-2.1,0-4.1-0.4-6-1.1c-1.9-0.7-3.5-1.8-4.9-3.1c-1.4-1.4-2.5-3-3.3-4.9C560.2,543.1,559.8,540.9,559.8,538.5z"/>
			<path class="st2" d="M615,543.2c0,1.8-0.3,3.4-1,4.8c-0.6,1.4-1.5,2.5-2.5,3.4c-1,0.9-2.2,1.6-3.6,2c-1.3,0.5-2.7,0.7-4.1,0.7
				c-1.4,0-2.7-0.2-4-0.7c-1.3-0.5-2.5-1.2-3.5-2.1c-1-0.9-1.9-2-2.5-3.4c-0.6-1.4-0.9-2.9-0.9-4.8c0-1.8,0.3-3.4,1-4.8
				c0.6-1.4,1.5-2.5,2.5-3.4c1-0.9,2.2-1.6,3.6-2c1.3-0.5,2.7-0.7,4.1-0.7c1.4,0,2.8,0.2,4.1,0.7c1.3,0.5,2.5,1.1,3.5,2
				c1,0.9,1.9,2,2.5,3.4C614.7,539.8,615,541.4,615,543.2z M596.3,543.2c0,1.3,0.2,2.5,0.7,3.5c0.4,1,1,1.9,1.7,2.5
				c0.7,0.7,1.5,1.2,2.5,1.5c0.9,0.3,1.9,0.5,2.8,0.5c1,0,1.9-0.2,2.8-0.5c0.9-0.3,1.7-0.9,2.4-1.5c0.7-0.7,1.3-1.5,1.7-2.5
				c0.4-1,0.7-2.2,0.7-3.5c0-1.3-0.2-2.5-0.7-3.5c-0.4-1-1-1.8-1.7-2.5c-0.7-0.7-1.5-1.1-2.5-1.5c-0.9-0.3-1.9-0.5-2.8-0.5
				c-1,0-1.9,0.2-2.8,0.5c-0.9,0.3-1.7,0.8-2.4,1.5c-0.7,0.7-1.3,1.5-1.7,2.5C596.5,540.7,596.3,541.9,596.3,543.2z"/>
			<path class="st2" d="M636.5,553.8v-12.4c0-1.9-0.5-3.4-1.6-4.5c-1.1-1.1-2.5-1.6-4.3-1.6c-0.9,0-1.7,0.1-2.5,0.4
				c-0.8,0.3-1.4,0.7-2,1.2c-0.6,0.5-1,1.2-1.3,1.9c-0.3,0.7-0.5,1.5-0.5,2.4v12.6H621v-15c0-0.7,0-1.3-0.1-1.7
				c0-0.5-0.2-0.8-0.3-1.1c-0.2-0.3-0.4-0.4-0.7-0.5c-0.3-0.1-0.8-0.1-1.3,0l0-2.7c0.6-0.1,1.2-0.2,1.9-0.2c0.7-0.1,1.3,0,1.8,0.2
				c0.6,0.2,1,0.5,1.4,1c0.4,0.5,0.5,1.3,0.5,2.3c0.9-1.4,2-2.4,3.3-2.8c1.3-0.5,2.6-0.7,4.1-0.7c1.4,0,2.6,0.2,3.7,0.7
				c1,0.5,1.9,1.1,2.6,1.9c0.7,0.8,1.2,1.8,1.6,2.9c0.4,1.1,0.5,2.3,0.5,3.6v12.4H636.5z"/>
			<path class="st2" d="M653.9,553.9l-10-20.8v-0.4h3.7l3.6,7.9l3.5,8.2l3.5-8.3l3.4-7.8h3.7v0.4l-9.9,20.8H653.9z"/>
			<path class="st2" d="M679,532.3c3.6,0,6.2,1,7.8,3c1.6,2,2.1,4.7,1.5,8.2h-16.6c-0.1,1.2,0.1,2.3,0.5,3.2c0.4,0.9,1,1.8,1.8,2.4
				c0.8,0.7,1.7,1.2,2.7,1.5c1,0.3,2.2,0.5,3.4,0.5c1.2,0,2.4-0.1,3.6-0.4c1.1-0.3,2.3-0.6,3.6-1.1l0.5,2.6
				c-2.5,1.2-5.1,1.8-7.7,1.8c-1.7,0-3.3-0.3-4.8-0.8c-1.5-0.5-2.7-1.3-3.8-2.3c-1-1-1.8-2.2-2.4-3.6c-0.6-1.4-0.8-3-0.7-4.8
				c0.1-1.7,0.4-3.1,1-4.4c0.6-1.3,1.4-2.4,2.3-3.2c1-0.9,2.1-1.6,3.4-2C676.2,532.6,677.5,532.3,679,532.3z M679,535
				c-1.9,0-3.5,0.5-4.8,1.5c-1.3,1-2.1,2.5-2.4,4.4h13.7c0.1-1-0.1-1.9-0.4-2.6c-0.3-0.7-0.8-1.4-1.4-1.9c-0.6-0.5-1.3-0.9-2.1-1.1
				C680.8,535.2,679.9,535,679,535z"/>
			<path class="st2" d="M710,553.8v-12.4c0-1.9-0.5-3.4-1.6-4.5c-1.1-1.1-2.5-1.6-4.3-1.6c-0.9,0-1.7,0.1-2.5,0.4
				c-0.8,0.3-1.4,0.7-2,1.2c-0.6,0.5-1,1.2-1.3,1.9c-0.3,0.7-0.5,1.5-0.5,2.4v12.6h-3.4v-15c0-0.7,0-1.3-0.1-1.7
				c0-0.5-0.2-0.8-0.3-1.1c-0.2-0.3-0.4-0.4-0.7-0.5c-0.3-0.1-0.8-0.1-1.3,0l0-2.7c0.6-0.1,1.2-0.2,1.9-0.2c0.7-0.1,1.3,0,1.8,0.2
				c0.6,0.2,1,0.5,1.4,1c0.4,0.5,0.5,1.3,0.5,2.3c0.9-1.4,2-2.4,3.3-2.8c1.3-0.5,2.6-0.7,4.1-0.7c1.4,0,2.6,0.2,3.7,0.7
				c1,0.5,1.9,1.1,2.6,1.9c0.7,0.8,1.2,1.8,1.6,2.9c0.4,1.1,0.5,2.3,0.5,3.6v12.4H710z"/>
			<path class="st2" d="M719.4,525.8c0-0.7,0.2-1.3,0.7-1.6c0.5-0.3,0.9-0.5,1.5-0.5s1,0.2,1.5,0.5c0.5,0.3,0.7,0.9,0.7,1.6
				c0,0.7-0.2,1.3-0.7,1.6c-0.5,0.4-0.9,0.5-1.5,0.5s-1-0.2-1.5-0.5C719.7,527.1,719.4,526.5,719.4,525.8z M723.3,553.8h-3.4v-21
				h3.4V553.8z"/>
			<path class="st2" d="M739.4,532.3c3.6,0,6.2,1,7.8,3c1.6,2,2.1,4.7,1.5,8.2H732c-0.1,1.2,0.1,2.3,0.5,3.2c0.4,0.9,1,1.8,1.8,2.4
				c0.8,0.7,1.7,1.2,2.7,1.5c1,0.3,2.2,0.5,3.4,0.5c1.2,0,2.4-0.1,3.6-0.4c1.1-0.3,2.3-0.6,3.6-1.1l0.5,2.6
				c-2.5,1.2-5.1,1.8-7.7,1.8c-1.7,0-3.3-0.3-4.8-0.8c-1.5-0.5-2.7-1.3-3.8-2.3c-1-1-1.8-2.2-2.4-3.6c-0.6-1.4-0.8-3-0.7-4.8
				c0.1-1.7,0.4-3.1,1-4.4c0.6-1.3,1.4-2.4,2.3-3.2c1-0.9,2.1-1.6,3.4-2C736.6,532.6,738,532.3,739.4,532.3z M739.4,535
				c-1.9,0-3.5,0.5-4.8,1.5c-1.3,1-2.1,2.5-2.4,4.4h13.7c0.1-1-0.1-1.9-0.4-2.6c-0.3-0.7-0.8-1.4-1.4-1.9c-0.6-0.5-1.3-0.9-2.1-1.1
				C741.2,535.2,740.3,535,739.4,535z"/>
			<path class="st2" d="M770.4,553.8v-12.4c0-1.9-0.5-3.4-1.6-4.5c-1.1-1.1-2.5-1.6-4.3-1.6c-0.9,0-1.7,0.1-2.5,0.4
				c-0.8,0.3-1.4,0.7-2,1.2s-1,1.2-1.3,1.9c-0.3,0.7-0.5,1.5-0.5,2.4v12.6h-3.4v-15c0-0.7,0-1.3-0.1-1.7c0-0.5-0.2-0.8-0.3-1.1
				c-0.2-0.3-0.4-0.4-0.7-0.5c-0.3-0.1-0.8-0.1-1.3,0l0-2.7c0.6-0.1,1.2-0.2,1.9-0.2c0.7-0.1,1.3,0,1.8,0.2c0.6,0.2,1,0.5,1.4,1
				c0.4,0.5,0.5,1.3,0.5,2.3c0.9-1.4,2-2.4,3.3-2.8c1.3-0.5,2.6-0.7,4.1-0.7c1.4,0,2.6,0.2,3.7,0.7c1,0.5,1.9,1.1,2.6,1.9
				c0.7,0.8,1.2,1.8,1.6,2.9c0.4,1.1,0.5,2.3,0.5,3.6v12.4H770.4z"/>
			<path class="st2" d="M796.5,539.3c-0.6-1.3-1.4-2.3-2.6-2.9c-1.1-0.6-2.4-1-3.7-1c-1,0-1.9,0.2-2.9,0.5c-0.9,0.3-1.8,0.8-2.5,1.4
				c-0.7,0.6-1.3,1.4-1.8,2.4c-0.5,1-0.7,2.1-0.7,3.4c0,1.3,0.2,2.5,0.7,3.4c0.5,1,1,1.8,1.7,2.5c0.7,0.7,1.5,1.2,2.4,1.5
				c0.9,0.3,1.9,0.5,2.8,0.5c1.4,0,2.7-0.4,3.9-1.1c1.2-0.7,2.1-1.8,2.7-3.3h3.3c-0.3,1.3-0.8,2.3-1.5,3.3c-0.7,0.9-1.5,1.7-2.4,2.3
				c-0.9,0.6-1.9,1.1-2.9,1.4c-1.1,0.3-2.1,0.5-3.2,0.5c-1.4,0-2.7-0.2-4-0.7c-1.3-0.5-2.5-1.2-3.6-2.1c-1-0.9-1.9-2.1-2.5-3.4
				c-0.6-1.4-1-3-1-4.8c0-1.8,0.3-3.4,1-4.8c0.7-1.4,1.5-2.5,2.6-3.4c1-0.9,2.2-1.5,3.6-2c1.3-0.4,2.7-0.7,4.1-0.7
				c1.1,0,2.1,0.2,3.1,0.5c1,0.3,2,0.7,2.8,1.3c0.9,0.6,1.6,1.3,2.3,2.2c0.7,0.9,1.1,1.9,1.5,3H796.5z"/>
			<path class="st2" d="M814.3,532.3c3.6,0,6.2,1,7.8,3c1.6,2,2.1,4.7,1.5,8.2H807c-0.1,1.2,0.1,2.3,0.5,3.2c0.4,0.9,1,1.8,1.8,2.4
				c0.8,0.7,1.7,1.2,2.7,1.5c1,0.3,2.2,0.5,3.4,0.5c1.2,0,2.4-0.1,3.6-0.4c1.1-0.3,2.3-0.6,3.6-1.1l0.5,2.6
				c-2.5,1.2-5.1,1.8-7.7,1.8c-1.7,0-3.3-0.3-4.8-0.8c-1.5-0.5-2.7-1.3-3.8-2.3c-1-1-1.8-2.2-2.4-3.6c-0.6-1.4-0.8-3-0.7-4.8
				c0.1-1.7,0.4-3.1,1-4.4c0.6-1.3,1.4-2.4,2.3-3.2c1-0.9,2.1-1.6,3.4-2C811.5,532.6,812.9,532.3,814.3,532.3z M814.3,535
				c-1.9,0-3.5,0.5-4.8,1.5c-1.3,1-2.1,2.5-2.4,4.4h13.7c0.1-1-0.1-1.9-0.4-2.6c-0.3-0.7-0.8-1.4-1.4-1.9c-0.6-0.5-1.3-0.9-2.1-1.1
				C816.1,535.2,815.3,535,814.3,535z"/>
			<path class="st2" d="M831,554.1c-0.6,0-1.1-0.2-1.6-0.6c-0.4-0.4-0.7-0.9-0.7-1.5c0-0.7,0.2-1.2,0.7-1.5c0.4-0.4,1-0.5,1.6-0.5
				c0.6,0,1.2,0.2,1.6,0.5c0.4,0.4,0.7,0.9,0.7,1.5c0,0.6-0.2,1.1-0.7,1.5C832.1,553.9,831.6,554.1,831,554.1z"/>
			<path class="st2" d="M849.7,538.4c0-2.4,0.4-4.5,1.2-6.4c0.8-1.9,1.9-3.6,3.2-4.9c1.4-1.4,3-2.4,4.8-3.1c1.8-0.7,3.8-1.1,6-1.1
				c1.5,0,2.9,0.2,4.4,0.5c1.4,0.3,2.8,0.9,4,1.6c1.2,0.7,2.3,1.7,3.2,2.8c0.9,1.1,1.6,2.5,2,4.1h-3.6c-0.4-1.1-0.9-2-1.6-2.8
				c-0.7-0.7-1.4-1.3-2.3-1.8c-0.9-0.5-1.8-0.8-2.9-1c-1-0.2-2.1-0.3-3.2-0.3c-1.8,0-3.4,0.3-4.8,0.9c-1.4,0.6-2.6,1.5-3.6,2.6
				c-1,1.1-1.8,2.4-2.3,3.9c-0.5,1.5-0.8,3.1-0.8,4.9c0,1.8,0.3,3.4,0.8,4.9c0.5,1.5,1.3,2.8,2.3,3.9c1,1.1,2.2,1.9,3.6,2.6
				c1.4,0.6,3,0.9,4.8,0.9c1.6,0,3-0.2,4.3-0.6c1.3-0.4,2.5-1,3.5-1.9c1-0.8,1.8-1.9,2.4-3.1c0.6-1.3,1-2.7,1.1-4.4h-10.9v-3.1h14.2
				c0.1,2.2-0.2,4.3-0.7,6.3c-0.6,2-1.5,3.7-2.7,5.2c-1.2,1.5-2.8,2.7-4.7,3.6c-1.9,0.9-4.1,1.3-6.6,1.3c-2.2,0-4.2-0.4-6-1.1
				c-1.9-0.7-3.5-1.8-4.8-3.2c-1.4-1.4-2.4-3-3.2-5C850,542.9,849.7,540.8,849.7,538.4z"/>
			<path class="st2" d="M888.5,535.7c0.6-1.2,1.5-2.1,2.7-2.6c1.1-0.5,2.4-0.8,3.7-0.8c1.8,0,3.5,0.5,4.9,1.6l-0.8,2.9
				c-0.7-0.4-1.4-0.8-2.1-1c-0.7-0.2-1.5-0.4-2.3-0.4c-0.8,0-1.5,0.1-2.2,0.4c-0.7,0.3-1.3,0.6-1.9,1.1c-0.5,0.5-1,1-1.3,1.7
				c-0.3,0.7-0.5,1.4-0.5,2.2v12.9h-3.4v-15.9c0-0.5,0-0.9,0-1.3c0-0.4-0.1-0.7-0.3-1c-0.2-0.2-0.4-0.4-0.8-0.5
				c-0.3-0.1-0.8-0.1-1.4-0.1l0-2.3c0.8-0.1,1.6-0.2,2.2-0.2c0.7,0,1.3,0.1,1.8,0.3c0.5,0.2,0.9,0.5,1.2,1
				C888.3,534.2,888.4,534.9,888.5,535.7z"/>
			<path class="st2" d="M913,532.3c3.6,0,6.2,1,7.8,3c1.6,2,2.1,4.7,1.5,8.2h-16.6c-0.1,1.2,0.1,2.3,0.5,3.2c0.4,0.9,1,1.8,1.8,2.4
				c0.8,0.7,1.7,1.2,2.7,1.5c1,0.3,2.2,0.5,3.4,0.5c1.2,0,2.4-0.1,3.6-0.4c1.1-0.3,2.3-0.6,3.6-1.1l0.5,2.6
				c-2.5,1.2-5.1,1.8-7.7,1.8c-1.7,0-3.3-0.3-4.8-0.8c-1.5-0.5-2.7-1.3-3.8-2.3c-1-1-1.8-2.2-2.4-3.6c-0.6-1.4-0.8-3-0.7-4.8
				c0.1-1.7,0.4-3.1,1-4.4c0.6-1.3,1.4-2.4,2.3-3.2c1-0.9,2.1-1.6,3.4-2C910.2,532.6,911.5,532.3,913,532.3z M913,535
				c-1.9,0-3.5,0.5-4.8,1.5c-1.3,1-2.1,2.5-2.4,4.4h13.7c0.1-1-0.1-1.9-0.4-2.6c-0.3-0.7-0.8-1.4-1.4-1.9c-0.6-0.5-1.3-0.9-2.1-1.1
				C914.8,535.2,913.9,535,913,535z"/>
			<path class="st2" d="M941.8,550c-0.4,0.7-0.9,1.4-1.5,1.9c-0.6,0.5-1.3,1-2,1.3c-0.7,0.3-1.5,0.6-2.4,0.8
				c-0.8,0.2-1.6,0.2-2.4,0.2c-1,0-1.9-0.1-2.8-0.3c-0.9-0.2-1.7-0.6-2.4-1.1c-0.7-0.5-1.2-1.1-1.6-1.9c-0.4-0.8-0.6-1.7-0.6-2.8
				c0-1.2,0.2-2.2,0.6-3.1c0.4-0.9,1-1.6,1.7-2.2c0.7-0.6,1.6-1,2.6-1.3c1-0.3,2-0.4,3.1-0.4c1.2,0,2.5,0.1,3.8,0.3
				c1.3,0.2,2.4,0.6,3.5,1.2v-3.1c0-0.9-0.2-1.6-0.6-2.2c-0.4-0.6-1-1-1.6-1.4c-0.7-0.3-1.4-0.5-2.1-0.7c-0.8-0.1-1.5-0.2-2.2-0.2
				c-1.2,0-2.4,0.1-3.4,0.4c-1.1,0.2-2.1,0.6-3,1.2l-0.6-2.7c1-0.5,2.2-0.9,3.5-1.2c1.3-0.3,2.6-0.4,4-0.4c1.2,0,2.3,0.1,3.5,0.3
				c1.1,0.2,2.1,0.6,3,1.2s1.5,1.3,2,2.2c0.5,0.9,0.7,2.1,0.7,3.4v8.8c0,0.6,0,1.1,0,1.5c0,0.5,0.1,0.8,0.2,1.1
				c0.1,0.3,0.4,0.5,0.7,0.6c0.3,0.1,0.8,0.1,1.5,0l0,2.2c-0.9,0.1-1.6,0.2-2.3,0.2c-0.6,0-1.2-0.2-1.6-0.5c-0.4-0.3-0.8-0.7-1-1.3
				C941.9,551.7,941.8,550.9,941.8,550z M941.4,545.2c-0.7-0.4-1.6-0.8-2.8-1c-1.2-0.3-2.4-0.4-3.6-0.4c-0.7,0-1.3,0.1-2,0.2
				c-0.7,0.1-1.2,0.4-1.7,0.7c-0.5,0.3-0.9,0.7-1.2,1.3c-0.3,0.5-0.5,1.2-0.5,1.9c0,0.7,0.1,1.2,0.4,1.7c0.3,0.5,0.6,0.8,1,1.1
				c0.4,0.3,0.9,0.4,1.5,0.5c0.6,0.1,1.1,0.2,1.7,0.2c0.7,0,1.4-0.1,2.2-0.3c0.7-0.2,1.5-0.5,2.1-0.8c0.7-0.4,1.3-0.9,1.8-1.5
				c0.5-0.6,0.9-1.3,1.1-2.2V545.2z"/>
			<path class="st2" d="M957,532.8h7.7v2.5H957v10.6c0,1.9,0.4,3.3,1.1,4.1c0.8,0.9,1.8,1.3,3.2,1.3c1.1,0,2.5-0.3,4.1-0.9l0.4,2.7
				c-1.9,0.6-3.8,1-5.5,1c-2.1,0-3.7-0.6-4.9-1.9c-1.2-1.3-1.8-3.3-1.8-6.2v-10.7l-4.5-0.2v-2.3h4.7l0.3-6.5h2.8V532.8z"/>
			<path class="st2" d="M978.6,526.5v-3.3h22.4v3.3h-9.4v27.3H988v-27.3H978.6z"/>
			<path class="st2" d="M1014.5,532.3c3.6,0,6.2,1,7.8,3c1.6,2,2.1,4.7,1.5,8.2h-16.6c-0.1,1.2,0.1,2.3,0.5,3.2
				c0.4,0.9,1,1.8,1.8,2.4c0.8,0.7,1.7,1.2,2.7,1.5c1,0.3,2.2,0.5,3.4,0.5c1.2,0,2.4-0.1,3.6-0.4c1.1-0.3,2.3-0.6,3.6-1.1l0.5,2.6
				c-2.5,1.2-5.1,1.8-7.7,1.8c-1.7,0-3.3-0.3-4.8-0.8c-1.5-0.5-2.7-1.3-3.8-2.3c-1-1-1.8-2.2-2.4-3.6c-0.6-1.4-0.8-3-0.7-4.8
				c0.1-1.7,0.4-3.1,1-4.4c0.6-1.3,1.4-2.4,2.3-3.2c1-0.9,2.1-1.6,3.4-2C1011.6,532.6,1013,532.3,1014.5,532.3z M1014.5,535
				c-1.9,0-3.5,0.5-4.8,1.5c-1.3,1-2.1,2.5-2.4,4.4h13.7c0.1-1-0.1-1.9-0.4-2.6c-0.3-0.7-0.8-1.4-1.4-1.9c-0.6-0.5-1.3-0.9-2.1-1.1
				C1016.3,535.2,1015.4,535,1014.5,535z"/>
			<path class="st2" d="M1045.5,553.8v-12.4c0-1.9-0.5-3.4-1.6-4.5c-1.1-1.1-2.5-1.6-4.3-1.6c-0.9,0-1.7,0.1-2.5,0.4
				c-0.8,0.3-1.4,0.7-2,1.2s-1,1.2-1.3,1.9c-0.3,0.7-0.5,1.5-0.5,2.4v12.6h-3.4v-15c0-0.7,0-1.3-0.1-1.7c0-0.5-0.2-0.8-0.3-1.1
				c-0.2-0.3-0.4-0.4-0.7-0.5c-0.3-0.1-0.8-0.1-1.3,0l0-2.7c0.6-0.1,1.2-0.2,1.9-0.2c0.7-0.1,1.3,0,1.8,0.2c0.6,0.2,1,0.5,1.4,1
				c0.4,0.5,0.5,1.3,0.5,2.3c0.9-1.4,2-2.4,3.3-2.8c1.3-0.5,2.6-0.7,4.1-0.7c1.4,0,2.6,0.2,3.7,0.7c1,0.5,1.9,1.1,2.6,1.9
				c0.7,0.8,1.2,1.8,1.6,2.9c0.4,1.1,0.5,2.3,0.5,3.6v12.4H1045.5z"/>
			<path class="st2" d="M1069.4,550c-0.4,0.7-0.9,1.4-1.5,1.9c-0.6,0.5-1.3,1-2,1.3c-0.7,0.3-1.5,0.6-2.4,0.8
				c-0.8,0.2-1.6,0.2-2.4,0.2c-1,0-1.9-0.1-2.8-0.3c-0.9-0.2-1.7-0.6-2.4-1.1c-0.7-0.5-1.2-1.1-1.6-1.9c-0.4-0.8-0.6-1.7-0.6-2.8
				c0-1.2,0.2-2.2,0.6-3.1c0.4-0.9,1-1.6,1.7-2.2c0.7-0.6,1.6-1,2.6-1.3c1-0.3,2-0.4,3.1-0.4c1.2,0,2.5,0.1,3.8,0.3
				c1.3,0.2,2.4,0.6,3.5,1.2v-3.1c0-0.9-0.2-1.6-0.6-2.2c-0.4-0.6-1-1-1.6-1.4c-0.7-0.3-1.4-0.5-2.1-0.7c-0.8-0.1-1.5-0.2-2.2-0.2
				c-1.2,0-2.4,0.1-3.4,0.4s-2.1,0.6-3,1.2l-0.6-2.7c1-0.5,2.2-0.9,3.5-1.2s2.6-0.4,4-0.4c1.2,0,2.3,0.1,3.5,0.3
				c1.1,0.2,2.1,0.6,3,1.2c0.9,0.6,1.5,1.3,2,2.2c0.5,0.9,0.7,2.1,0.7,3.4v8.8c0,0.6,0,1.1,0,1.5c0,0.5,0.1,0.8,0.2,1.1
				c0.1,0.3,0.4,0.5,0.7,0.6c0.3,0.1,0.8,0.1,1.5,0l0,2.2c-0.9,0.1-1.6,0.2-2.3,0.2c-0.6,0-1.2-0.2-1.6-0.5c-0.4-0.3-0.8-0.7-1-1.3
				C1069.5,551.7,1069.4,550.9,1069.4,550z M1068.9,545.2c-0.7-0.4-1.6-0.8-2.8-1c-1.2-0.3-2.4-0.4-3.6-0.4c-0.7,0-1.3,0.1-2,0.2
				c-0.7,0.1-1.2,0.4-1.7,0.7c-0.5,0.3-0.9,0.7-1.2,1.3c-0.3,0.5-0.5,1.2-0.5,1.9c0,0.7,0.1,1.2,0.4,1.7c0.3,0.5,0.6,0.8,1,1.1
				c0.4,0.3,0.9,0.4,1.5,0.5c0.6,0.1,1.1,0.2,1.7,0.2c0.7,0,1.4-0.1,2.2-0.3c0.7-0.2,1.5-0.5,2.1-0.8c0.7-0.4,1.3-0.9,1.8-1.5
				c0.5-0.6,0.9-1.3,1.1-2.2V545.2z"/>
			<path class="st2" d="M1095.3,553.8v-12.4c0-1.9-0.5-3.4-1.6-4.5c-1.1-1.1-2.5-1.6-4.3-1.6c-0.9,0-1.7,0.1-2.5,0.4
				c-0.8,0.3-1.4,0.7-2,1.2s-1,1.2-1.3,1.9c-0.3,0.7-0.5,1.5-0.5,2.4v12.6h-3.4v-15c0-0.7,0-1.3-0.1-1.7c0-0.5-0.2-0.8-0.3-1.1
				c-0.2-0.3-0.4-0.4-0.7-0.5c-0.3-0.1-0.8-0.1-1.3,0l0-2.7c0.6-0.1,1.2-0.2,1.9-0.2c0.7-0.1,1.3,0,1.8,0.2c0.6,0.2,1,0.5,1.4,1
				c0.4,0.5,0.5,1.3,0.5,2.3c0.9-1.4,2-2.4,3.3-2.8c1.3-0.5,2.6-0.7,4.1-0.7c1.4,0,2.6,0.2,3.7,0.7c1,0.5,1.9,1.1,2.6,1.9
				c0.7,0.8,1.2,1.8,1.6,2.9c0.4,1.1,0.5,2.3,0.5,3.6v12.4H1095.3z"/>
			<path class="st2" d="M1110.7,532.8h7.7v2.5h-7.7v10.6c0,1.9,0.4,3.3,1.1,4.1c0.8,0.9,1.8,1.3,3.2,1.3c1.1,0,2.5-0.3,4.1-0.9
				l0.4,2.7c-1.9,0.6-3.8,1-5.5,1c-2.1,0-3.7-0.6-4.9-1.9c-1.2-1.3-1.8-3.3-1.8-6.2v-10.7l-4.5-0.2v-2.3h4.7l0.3-6.5h2.8V532.8z"/>
			<path class="st2" d="M1125.2,547.8c0.1,0.7,0.3,1.2,0.6,1.7c0.4,0.5,0.8,0.8,1.4,1.1c0.6,0.3,1.2,0.5,1.9,0.6
				c0.7,0.1,1.4,0.2,2.1,0.2c0.7,0,1.4-0.1,2.1-0.2c0.7-0.1,1.3-0.4,1.9-0.7c0.6-0.3,1-0.7,1.4-1.1c0.3-0.5,0.5-1,0.6-1.7
				c0-0.6-0.1-1.1-0.4-1.5c-0.2-0.4-0.6-0.7-1.1-0.9c-0.5-0.2-1.1-0.5-1.9-0.6c-0.7-0.2-1.6-0.3-2.6-0.5c-1-0.1-2.1-0.3-3.1-0.5
				c-1-0.2-2-0.5-2.8-0.9c-0.8-0.4-1.5-1-2-1.6c-0.5-0.7-0.8-1.6-0.9-2.7c0-1.1,0.2-2,0.7-2.8c0.5-0.8,1.2-1.4,2-1.9
				c0.8-0.5,1.8-0.9,2.8-1.1c1-0.2,2.1-0.3,3.2-0.3c1.1,0,2.1,0.1,3.2,0.4c1.1,0.2,2,0.6,2.8,1.1c0.8,0.5,1.5,1.1,2,1.9
				c0.5,0.8,0.7,1.6,0.7,2.7h-3.3c0-0.6-0.2-1-0.5-1.5c-0.3-0.4-0.7-0.8-1.2-1c-0.5-0.3-1.1-0.5-1.7-0.6c-0.7-0.1-1.3-0.2-2-0.2
				c-0.7,0-1.3,0.1-2,0.2c-0.7,0.1-1.3,0.3-1.8,0.6c-0.5,0.3-0.9,0.6-1.3,1c-0.3,0.4-0.5,1-0.4,1.6c0,1,0.5,1.7,1.5,2.1
				c1,0.4,2.4,0.7,4.4,1c1.1,0.1,2.2,0.3,3.3,0.5c1.1,0.2,2,0.5,2.9,0.9c0.8,0.4,1.5,1,2,1.7c0.5,0.7,0.7,1.7,0.7,3
				c0,1.1-0.3,2-0.8,2.8c-0.5,0.8-1.2,1.5-2,2c-0.8,0.5-1.8,0.9-2.9,1.2c-1.1,0.3-2.3,0.4-3.5,0.4c-1.1,0-2.2-0.1-3.3-0.3
				c-1.1-0.2-2.1-0.6-2.9-1c-0.9-0.5-1.6-1.1-2.1-2c-0.6-0.8-0.9-1.8-1-3H1125.2z"/>
			<path class="st2" d="M1147.5,554.1c-0.6,0-1.1-0.2-1.6-0.6c-0.4-0.4-0.7-0.9-0.7-1.5c0-0.7,0.2-1.2,0.7-1.5
				c0.4-0.4,1-0.5,1.6-0.5c0.6,0,1.2,0.2,1.6,0.5c0.4,0.4,0.7,0.9,0.7,1.5c0,0.6-0.2,1.1-0.7,1.5
				C1148.7,553.9,1148.1,554.1,1147.5,554.1z"/>
		</g>
		<g>
			<path class="st2" d="M1150.7,523v-2.6h10.4v2.6h-3.7v11.5h-2.9V523H1150.7z"/>
			<path class="st2" d="M1175.5,520.3h1.1v14.1h-3v-7.6l-3.5,4.4h-0.4l-3.5-4.4v7.6h-3v-14.1h1.1l5.7,6.7L1175.5,520.3z"/>
		</g>
	</g>
</g>
</svg>
